<svg width="32" height="32" viewBox="0 0 32 32" fill="none" xmlns="http://www.w3.org/2000/svg">
<path d="M21.3333 12.963C21.3333 13.1111 21.3333 13.2593 21.3333 13.4074C21.3333 14.4444 21.0666 15.4815 20.8 16.3704C20.5333 17.2593 20 18.2963 19.3333 19.1852C18.6666 20.0741 17.8666 20.6667 16.8 21.2593C15.7333 21.8519 14.6666 22 13.4666 22C12 22 10.6666 21.5556 9.33331 20.6667C9.59998 20.6667 9.73331 20.6667 9.99998 20.6667C11.3333 20.6667 12.4 20.2222 13.4666 19.3333C12.8 19.3333 12.2666 19.037 11.8666 18.7407C11.4666 18.4444 11.0666 17.8519 10.9333 17.2593C11.0666 17.2593 11.2 17.2593 11.4666 17.2593C11.7333 17.2593 12 17.2593 12.1333 17.1111C11.4666 17.1111 10.9333 16.6667 10.5333 16.2222C10.1333 15.7778 9.86665 15.037 9.86665 14.2963C10.2666 14.4444 10.6666 14.5926 11.0666 14.5926C10.2666 14 9.86665 13.1111 9.86665 12.0741C9.86665 11.4815 9.99998 11.037 10.2666 10.5926C10.9333 11.4815 11.7333 12.2222 12.8 12.8148C13.8666 13.4074 14.8 13.7037 16 13.7037C16 13.4074 16 13.2593 16 12.963C16 12.0741 16.2666 11.4815 16.8 10.8889C17.3333 10.2963 17.8666 10 18.5333 10C19.3333 10 20 10.2963 20.5333 10.8889C21.2 10.7407 21.7333 10.4444 22.2666 10.1481C22.1333 10.8889 21.7333 11.4815 21.0666 11.9259C21.6 11.7778 22.1333 11.6296 22.6666 11.4815C22.2666 12.0741 21.8666 12.5185 21.3333 12.963Z" fill="#707070"/>
</svg>
