<svg width="32" height="32" viewBox="0 0 32 32" fill="none" xmlns="http://www.w3.org/2000/svg">
<path d="M23.025 12.3356C22.8584 11.6818 22.3584 11.1657 21.725 10.985C20.5834 10.6667 16 10.6667 16 10.6667C16 10.6667 11.4167 10.6667 10.2667 10.985C9.63335 11.1571 9.14169 11.6732 8.96669 12.3356C8.66669 13.5227 8.66669 16.0001 8.66669 16.0001C8.66669 16.0001 8.66669 18.4775 8.97502 19.6646C9.14169 20.3184 9.64169 20.8345 10.275 21.0151C11.4167 21.3334 16 21.3334 16 21.3334C16 21.3334 20.5834 21.3334 21.7334 21.0151C22.3667 20.8431 22.8584 20.327 23.0334 19.6646C23.3334 18.4775 23.3334 16.0001 23.3334 16.0001C23.3334 16.0001 23.3334 13.5227 23.025 12.3356ZM14.5 18.2538V13.7463L18.3334 16.0001L14.5 18.2538Z" fill="#707070"/>
</svg>
