<svg width="32" height="32" viewBox="0 0 32 32" fill="none" xmlns="http://www.w3.org/2000/svg">
<path d="M21.931 9.33325H10.0689C9.87384 9.33325 9.68673 9.41076 9.54877 9.54871C9.41082 9.68667 9.33331 9.87378 9.33331 10.0689V21.931C9.33331 22.1261 9.41082 22.3132 9.54877 22.4511C9.68673 22.5891 9.87384 22.6666 10.0689 22.6666H16.4598V17.5103H14.7241V15.4919H16.4598V14.0068C16.4598 12.285 17.5126 11.347 19.0483 11.347C19.5657 11.3459 20.0829 11.372 20.5977 11.4252V13.2252H19.5402C18.7034 13.2252 18.5402 13.6206 18.5402 14.2045V15.4896H20.5402L20.2804 17.508H18.5287V22.6666H21.931C22.1261 22.6666 22.3132 22.5891 22.4512 22.4511C22.5891 22.3132 22.6666 22.1261 22.6666 21.931V10.0689C22.6666 9.87378 22.5891 9.68667 22.4512 9.54871C22.3132 9.41076 22.1261 9.33325 21.931 9.33325V9.33325Z" fill="#707070"/>
</svg>
