<svg width="48" height="48" viewBox="0 0 48 48" fill="none" xmlns="http://www.w3.org/2000/svg">
<circle cx="24" cy="24" r="23.5" stroke="#D9D9D9"/>
<g clip-path="url(#clip0_6726_2602)">
<path d="M24 36C30.6274 36 36 30.6274 36 24C36 17.3726 30.6274 12 24 12C17.3726 12 12 17.3726 12 24C12 30.6274 17.3726 36 24 36Z" fill="#FF4500"/>
<path d="M32 24C32 23.05 31.2 22.25 30.25 22.25C29.8 22.25 29.35 22.45 29.05 22.75C27.85 21.9 26.2 21.35 24.35 21.25L25.15 17.5L27.75 18.05C27.8 18.7 28.3 19.25 29 19.25C29.7 19.25 30.25 18.7 30.25 18C30.25 17.3 29.7 16.75 29 16.75C28.5 16.75 28.1 17.05 27.9 17.45L25 16.85C24.9 16.85 24.85 16.85 24.75 16.9C24.7 16.95 24.65 17 24.6 17.1L23.7 21.3C21.85 21.35 20.15 21.9 18.95 22.8C18.65 22.5 18.2 22.3 17.75 22.3C16.8 22.25 16 23.05 16 24C16 24.7 16.4 25.3 17.05 25.6C17 25.75 17 25.95 17 26.1C17 28.8 20.15 31 24 31C27.85 31 31 28.8 31 26.1C31 25.9 31 25.75 30.95 25.55C31.55 25.35 32 24.7 32 24ZM20 25.25C20 24.55 20.55 24 21.25 24C21.95 24 22.5 24.55 22.5 25.25C22.5 25.95 21.95 26.5 21.25 26.5C20.55 26.5 20 25.95 20 25.25ZM26.95 28.55C26.1 29.4 24.45 29.45 24 29.45C23.5 29.45 21.9 29.4 21.05 28.55C20.9 28.4 20.9 28.2 21.05 28.1C21.2 27.95 21.4 27.95 21.5 28.1C22.05 28.65 23.2 28.85 24 28.85C24.8 28.85 25.95 28.65 26.5 28.1C26.65 27.95 26.85 27.95 26.95 28.1C27.1 28.2 27.1 28.45 26.95 28.55ZM26.75 26.5C26.05 26.5 25.5 25.95 25.5 25.25C25.5 24.55 26.05 24 26.75 24C27.45 24 28 24.55 28 25.25C28 25.95 27.45 26.5 26.75 26.5Z" fill="white"/>
</g>
<defs>
<clipPath id="clip0_6726_2602">
<rect width="24" height="24" fill="white" transform="translate(12 12)"/>
</clipPath>
</defs>
</svg>
