<svg width="48" height="48" viewBox="0 0 48 48" fill="none" xmlns="http://www.w3.org/2000/svg">
<circle cx="24" cy="24" r="23.5" stroke="#D9D9D9"/>
<path d="M18.8 16.3894C18.8 16.9867 18.6 17.5841 18 18.1814C17.4 18.7788 17 18.7788 16.4 18.7788C15.8 18.7788 15.2 18.5796 14.8 18.1814C14.4 17.7832 14 16.9867 14 16.3894C14 15.792 14.2 15.1947 14.8 14.5973C15.4 14 15.8 14 16.4 14C17 14 17.6 14.1991 18.2 14.7965C18.8 15.3938 18.8 15.792 18.8 16.3894ZM18.8 20.7699V33.3142C18.8 33.5133 18.8 33.5133 18.6 33.7124C18.4 33.9115 18.4 33.9115 18.2 33.9115H14.6C14.4 33.9115 14.4 33.9115 14.2 33.7124C14 33.5133 14.2 33.5133 14.2 33.3142V20.7699C14.2 20.5708 14.2 20.5708 14.4 20.3717C14.6 20.1726 14.6 20.1726 14.8 20.1726H18.4C18.6 20.1726 18.6 20.1726 18.8 20.3717C19 20.5708 18.8 20.5708 18.8 20.7699ZM29 24.1549C28.8 23.9558 28.2 23.7566 27.6 23.7566C26.8 23.7566 26.2 23.9558 25.8 24.354C25.4 24.7522 25.2 25.7478 25.2 26.5442V33.3142C25.2 33.5133 25.2 33.5133 25 33.7124C24.8 33.9115 24.8 33.9115 24.8 33.9115H21.2C21 33.9115 21 33.9115 20.8 33.7124C20.6 33.5133 20.6 33.5133 20.6 33.3142V20.7699C20.6 20.5708 20.6 20.5708 20.8 20.3717C21 20.1726 21 20.1726 21.2 20.1726H24.6C24.8 20.1726 24.8 20.1726 25 20.1726C25.2 20.1726 25.2 20.3717 25.2 20.3717C25.2 20.5708 25.2 20.5708 25.2 20.5708C25.2 20.5708 25.2 20.7699 25.2 20.969C26 20.3717 27.2 19.9735 28.8 19.9735C30.4 19.9735 31.8 20.3717 32.6 21.1681C33.4 21.9646 34 23.1593 34 24.9513V33.5133C34 33.7124 34 33.7124 33.8 33.9115C33.6 34.1106 33.6 33.9115 33.6 33.9115H29.8C29.6 33.9115 29.6 33.9115 29.4 33.7124C29.2 33.5133 29.4 33.5133 29.4 33.3142V25.7478C29.4 24.9513 29.2 24.5531 29 24.1549Z" fill="#007BB5"/>
</svg>
