<svg width="48" height="48" viewBox="0 0 48 48" fill="none" xmlns="http://www.w3.org/2000/svg">
<circle cx="24" cy="24" r="24" fill="#1DA1F2"/>
<path d="M32 19.4444C32 19.6667 32 19.8889 32 20.1111C32 21.6667 31.6 23.2222 31.2 24.5556C30.8 25.8889 30 27.4444 29 28.7778C28 30.1111 26.8 31 25.2 31.8889C23.6 32.7778 22 33 20.2 33C18 33 16 32.3333 14 31C14.4 31 14.6 31 15 31C17 31 18.6 30.3333 20.2 29C19.2 29 18.4 28.5556 17.8 28.1111C17.2 27.6667 16.6 26.7778 16.4 25.8889C16.6 25.8889 16.8 25.8889 17.2 25.8889C17.6 25.8889 18 25.8889 18.2 25.6667C17.2 25.6667 16.4 25 15.8 24.3333C15.2 23.6667 14.8 22.5556 14.8 21.4444C15.4 21.6667 16 21.8889 16.6 21.8889C15.4 21 14.8 19.6667 14.8 18.1111C14.8 17.2222 15 16.5556 15.4 15.8889C16.4 17.2222 17.6 18.3333 19.2 19.2222C20.8 20.1111 22.2 20.5556 24 20.5556C24 20.1111 24 19.8889 24 19.4444C24 18.1111 24.4 17.2222 25.2 16.3333C26 15.4444 26.8 15 27.8 15C29 15 30 15.4444 30.8 16.3333C31.8 16.1111 32.6 15.6667 33.4 15.2222C33.2 16.3333 32.6 17.2222 31.6 17.8889C32.4 17.6667 33.2 17.4444 34 17.2222C33.4 18.1111 32.8 18.7778 32 19.4444Z" fill="white"/>
</svg>
