<svg width="48" height="48" viewBox="0 0 48 48" fill="none" xmlns="http://www.w3.org/2000/svg">
<circle cx="24" cy="24" r="24" fill="#EB3223"/>
<path d="M34.5375 18.5032C34.2875 17.5226 33.5375 16.7484 32.5875 16.4774C30.875 16 24 16 24 16C24 16 17.125 16 15.4 16.4774C14.45 16.7355 13.7125 17.5097 13.45 18.5032C13 20.2839 13 24 13 24C13 24 13 27.7161 13.4625 29.4968C13.7125 30.4774 14.4625 31.2516 15.4125 31.5226C17.125 32 24 32 24 32C24 32 30.875 32 32.6 31.5226C33.55 31.2645 34.2875 30.4903 34.55 29.4968C35 27.7161 35 24 35 24C35 24 35 20.2839 34.5375 18.5032ZM21.75 27.3806V20.6194L27.5 24L21.75 27.3806Z" fill="white"/>
</svg>
