<svg width="48" height="48" viewBox="0 0 48 48" fill="none" xmlns="http://www.w3.org/2000/svg">
<circle cx="24" cy="24" r="23.5" stroke="#D9D9D9"/>
<path d="M32.8966 14H15.1034C14.8108 14 14.5301 14.1163 14.3232 14.3232C14.1163 14.5301 14 14.8108 14 15.1034V32.8966C14 33.1892 14.1163 33.4699 14.3232 33.6768C14.5301 33.8837 14.8108 34 15.1034 34H24.6897V26.2655H22.0862V23.2379H24.6897V21.0103C24.6897 18.4276 26.269 17.0207 28.5724 17.0207C29.3486 17.019 30.1244 17.0581 30.8966 17.1379V19.8379H29.3103C28.0552 19.8379 27.8103 20.431 27.8103 21.3069V23.2345H30.8103L30.4207 26.2621H27.7931V34H32.8966C33.1892 34 33.4699 33.8837 33.6768 33.6768C33.8837 33.4699 34 33.1892 34 32.8966V15.1034C34 14.8108 33.8837 14.5301 33.6768 14.3232C33.4699 14.1163 33.1892 14 32.8966 14V14Z" fill="#3B5998"/>
</svg>
