<svg width="32" height="32" viewBox="0 0 32 32" fill="none" xmlns="http://www.w3.org/2000/svg">
<path d="M12.5333 10.9262C12.5333 11.3244 12.4 11.7226 12 12.1209C11.6 12.5191 11.3333 12.5191 10.9333 12.5191C10.5333 12.5191 10.1333 12.3863 9.86665 12.1209C9.59998 11.8554 9.33331 11.3244 9.33331 10.9262C9.33331 10.5279 9.46665 10.1297 9.86665 9.73148C10.2666 9.33325 10.5333 9.33325 10.9333 9.33325C11.3333 9.33325 11.7333 9.466 12.1333 9.86423C12.5333 10.2625 12.5333 10.5279 12.5333 10.9262ZM12.5333 13.8465V22.2094C12.5333 22.3421 12.5333 22.3421 12.4 22.4748C12.2666 22.6076 12.2666 22.6076 12.1333 22.6076H9.73331C9.59998 22.6076 9.59998 22.6076 9.46665 22.4748C9.33331 22.3421 9.46665 22.3421 9.46665 22.2094V13.8465C9.46665 13.7138 9.46665 13.7138 9.59998 13.581C9.73331 13.4483 9.73331 13.4483 9.86665 13.4483H12.2666C12.4 13.4483 12.4 13.4483 12.5333 13.581C12.6666 13.7138 12.5333 13.7138 12.5333 13.8465ZM19.3333 16.1032C19.2 15.9704 18.8 15.8377 18.4 15.8377C17.8666 15.8377 17.4666 15.9704 17.2 16.2359C16.9333 16.5014 16.8 17.1651 16.8 17.6961V22.2094C16.8 22.3421 16.8 22.3421 16.6666 22.4748C16.5333 22.6076 16.5333 22.6076 16.5333 22.6076H14.1333C14 22.6076 14 22.6076 13.8666 22.4748C13.7333 22.3421 13.7333 22.3421 13.7333 22.2094V13.8465C13.7333 13.7138 13.7333 13.7138 13.8666 13.581C14 13.4483 14 13.4483 14.1333 13.4483H16.4C16.5333 13.4483 16.5333 13.4483 16.6666 13.4483C16.8 13.4483 16.8 13.581 16.8 13.581C16.8 13.7138 16.8 13.7138 16.8 13.7138C16.8 13.7138 16.8 13.8465 16.8 13.9793C17.3333 13.581 18.1333 13.3156 19.2 13.3156C20.2666 13.3156 21.2 13.581 21.7333 14.112C22.2666 14.643 22.6666 15.4394 22.6666 16.6341V22.3421C22.6666 22.4748 22.6666 22.4748 22.5333 22.6076C22.4 22.7403 22.4 22.6076 22.4 22.6076H19.8666C19.7333 22.6076 19.7333 22.6076 19.6 22.4748C19.4666 22.3421 19.6 22.3421 19.6 22.2094V17.1651C19.6 16.6341 19.4666 16.3687 19.3333 16.1032Z" fill="#707070"/>
</svg>
