<svg width="287" height="56" viewBox="0 0 287 56" fill="none" xmlns="http://www.w3.org/2000/svg">
<path d="M64.6019 10.6853H51.7769C51.4025 10.6853 51.2152 10.3502 51.2152 10.015V2.41891C51.2152 1.97207 51.4961 1.74866 51.7769 1.74866H87.0689C87.4434 1.74866 87.6306 2.08378 87.6306 2.41891V10.015C87.6306 10.4619 87.3498 10.6853 87.0689 10.6853H74.1504C73.7759 10.6853 73.5887 11.0204 73.5887 11.3555V53.3577C73.5887 53.8045 73.3079 54.0279 73.027 54.0279H65.8188C65.4444 54.0279 65.2571 53.6928 65.2571 53.3577V11.3555C65.1635 11.0204 64.9763 10.6853 64.6019 10.6853ZM116.276 24.8722L128.071 1.97207C128.165 1.74866 128.352 1.63695 128.539 1.63695H136.871V2.08378L120.021 34.7025C119.927 34.8142 119.927 34.9259 119.927 35.1493V53.3577C119.927 53.8045 119.646 54.1396 119.272 54.1396H112.157C111.783 54.1396 111.502 53.8045 111.502 53.3577V35.1493C111.502 35.0376 111.502 34.8142 111.408 34.7025L95.2132 2.08378V1.63695H103.451C103.638 1.63695 103.826 1.74866 104.013 1.97207L115.34 24.7605C115.527 25.319 116.089 25.319 116.276 24.8722ZM168.512 38.724H156.53C156.155 38.724 155.874 39.0591 155.874 39.5059V53.4694C155.874 53.9162 155.594 54.2513 155.219 54.2513H148.104C147.73 54.2513 147.449 53.9162 147.449 53.4694V2.41891C147.449 1.97207 147.73 1.63695 148.104 1.63695C154.845 1.63695 161.678 1.52524 168.418 1.52524C190.23 1.63695 190.23 38.724 168.512 38.724ZM155.968 28.8937C155.968 29.3405 156.249 29.6756 156.623 29.6756H168.606C179.278 29.6756 179.278 11.1321 168.606 11.1321H156.623C156.249 11.1321 155.968 11.4672 155.968 11.9141V28.8937ZM237.224 28.2234C237.037 41.7401 230.016 55.3684 214.382 55.3684C198.749 55.3684 191.634 42.0752 191.634 28.2234C191.634 14.4834 199.123 0.63158 214.382 0.63158C229.735 0.63158 237.317 14.4834 237.224 28.2234ZM199.872 28.4468C200.06 37.0483 203.991 46.3201 214.476 46.3201C224.961 46.3201 228.892 37.0483 228.986 28.4468C229.08 19.5102 224.867 9.56821 214.382 9.56821C203.991 9.56821 199.685 19.6219 199.872 28.4468ZM278.601 1.63695H285.715C286.09 1.63695 286.371 1.97207 286.371 2.41891V53.4694C286.371 53.9162 286.09 54.2513 285.715 54.2513H281.128L258.848 20.5156C258.474 19.957 257.725 20.2922 257.725 20.9624V53.4694C257.725 53.9162 257.444 54.2513 257.07 54.2513H249.955C249.581 54.2513 249.3 53.9162 249.3 53.4694V2.41891C249.3 1.97207 249.581 1.63695 249.955 1.63695H255.853C256.04 1.63695 256.227 1.74866 256.321 1.86037L276.822 32.4683C277.197 33.0269 277.945 32.6917 277.945 32.0215V2.3072C278.039 1.97207 278.32 1.63695 278.601 1.63695ZM0.757925 53.0226L20.0422 2.08378C20.1358 1.86037 20.4166 1.63695 20.6038 1.63695H28.9354C29.2162 1.63695 29.4034 1.86037 29.4971 2.08378L48.7813 53.0226C48.9685 53.5811 48.6877 54.1396 48.2196 54.1396H40.5434C40.2625 54.1396 40.0753 53.9162 39.9817 53.6928L25.3781 14.2599C25.1909 13.7014 24.442 13.5897 24.1611 14.2599L13.6765 42.2986C13.5829 42.522 13.7701 42.7454 13.9573 42.6337L24.6292 37.16C24.91 37.0483 25.2845 37.16 25.4717 37.6069L27.9993 44.4211C28.1865 44.8679 27.9993 45.3147 27.6248 45.4264L10.7745 54.0279H1.3196C0.851537 54.1396 0.570699 53.4694 0.757925 53.0226Z" fill="white"/>
</svg>
