<svg width="49" height="43" viewBox="0 0 49 43" fill="none" xmlns="http://www.w3.org/2000/svg">
<g opacity="0.2" clip-path="url(#clip0_7389_2289)">
<path d="M44.5656 9.67246L12.4784 1.07472C10.2724 0.483623 7.99123 1.77756 7.40909 3.95013L1.05849 27.6509C0.47635 29.8235 1.80496 32.0847 4.01096 32.6758L36.0982 41.2735C38.3042 41.8646 40.5854 40.5707 41.1675 38.3981L47.5181 14.6973C48.1003 12.5247 46.7716 10.2636 44.5656 9.67246ZM37.1566 37.3234L5.06939 28.7256L10.3616 8.97498L23.7591 23.1492L42.4488 17.5727L37.1566 37.3234ZM24.8175 19.199L11.42 5.02485L43.5072 13.6226L24.8175 19.199Z" fill="#707070"/>
</g>
<defs>
<clipPath id="clip0_7389_2289">
<rect width="41.5239" height="32.7158" fill="white" transform="translate(8.46753) rotate(15)"/>
</clipPath>
</defs>
</svg>
