<svg width="120" height="120" viewBox="0 0 120 120" fill="none" xmlns="http://www.w3.org/2000/svg">
<path d="M42.0056 56.2555C39.5427 55.5762 37.0797 55.2315 34.6839 55.2315C30.9842 55.2315 27.8971 56.0415 25.5034 57.0332C27.8111 48.9403 33.3549 34.9761 44.3983 33.4035C45.4211 33.2578 46.2592 32.5494 46.5382 31.5958L48.9519 23.326C49.1554 22.6266 49.0347 21.878 48.6183 21.2711C48.2019 20.6642 47.5326 20.2592 46.7826 20.1608C45.9676 20.0543 45.1368 20 44.3134 20C31.0576 20 17.9299 33.2538 12.3903 52.2311C9.13851 63.3647 8.185 80.1032 16.1949 90.6389C20.6771 96.5343 27.2163 99.6825 35.6311 99.997C35.6657 99.998 35.6993 99.999 35.7339 99.999C46.1165 99.999 55.3233 93.3008 58.124 83.7116C59.7971 77.979 59.0408 71.9671 55.9925 66.7791C52.9767 61.6494 48.0099 57.9104 42.0056 56.2555Z" fill="#F0F0F0"/>
<path d="M106.998 66.7801C103.983 61.6494 99.0157 57.9104 93.0115 56.2555C90.5485 55.5762 88.0855 55.2316 85.6907 55.2316C81.991 55.2316 78.9029 56.0415 76.5092 57.0332C78.8169 48.9403 84.3607 34.9761 95.4052 33.4035C96.4279 33.2578 97.265 32.5494 97.5451 31.5958L99.9587 23.326C100.162 22.6266 100.042 21.878 99.6252 21.2711C99.2098 20.6642 98.5405 20.2592 97.7895 20.1608C96.9755 20.0543 96.1447 20 95.3202 20C82.0645 20 68.9367 33.2538 63.3961 52.2311C60.1454 63.3647 59.1918 80.1032 67.2028 90.641C71.6839 96.5353 78.2242 99.6845 86.6379 99.998C86.6726 99.999 86.7061 100 86.7418 100C97.1234 100 106.331 93.3018 109.132 83.7126C110.803 77.98 110.046 71.9671 106.998 66.7801Z" fill="#F0F0F0"/>
</svg>
