<svg width="24" height="24" viewBox="0 0 24 24" fill="none" xmlns="http://www.w3.org/2000/svg">
<g clip-path="url(#clip0_6589_2604)">
<path d="M12 24C18.6274 24 24 18.6274 24 12C24 5.37258 18.6274 0 12 0C5.37258 0 0 5.37258 0 12C0 18.6274 5.37258 24 12 24Z" fill="#FF4500"/>
<path d="M20 12C20 11.05 19.2 10.25 18.25 10.25C17.8 10.25 17.35 10.45 17.05 10.75C15.85 9.9 14.2 9.35 12.35 9.25L13.15 5.5L15.75 6.05C15.8 6.7 16.3 7.25 17 7.25C17.7 7.25 18.25 6.7 18.25 6C18.25 5.3 17.7 4.75 17 4.75C16.5 4.75 16.1 5.05 15.9 5.45L13 4.85C12.9 4.85 12.85 4.85 12.75 4.9C12.7 4.95 12.65 5 12.6 5.1L11.7 9.3C9.85 9.35 8.15 9.9 6.95 10.8C6.65 10.5 6.2 10.3 5.75 10.3C4.8 10.25 4 11.05 4 12C4 12.7 4.4 13.3 5.05 13.6C5 13.75 5 13.95 5 14.1C5 16.8 8.15 19 12 19C15.85 19 19 16.8 19 14.1C19 13.9 19 13.75 18.95 13.55C19.55 13.35 20 12.7 20 12ZM8 13.25C8 12.55 8.55 12 9.25 12C9.95 12 10.5 12.55 10.5 13.25C10.5 13.95 9.95 14.5 9.25 14.5C8.55 14.5 8 13.95 8 13.25ZM14.95 16.55C14.1 17.4 12.45 17.45 12 17.45C11.5 17.45 9.9 17.4 9.05 16.55C8.9 16.4 8.9 16.2 9.05 16.1C9.2 15.95 9.4 15.95 9.5 16.1C10.05 16.65 11.2 16.85 12 16.85C12.8 16.85 13.95 16.65 14.5 16.1C14.65 15.95 14.85 15.95 14.95 16.1C15.1 16.2 15.1 16.45 14.95 16.55ZM14.75 14.5C14.05 14.5 13.5 13.95 13.5 13.25C13.5 12.55 14.05 12 14.75 12C15.45 12 16 12.55 16 13.25C16 13.95 15.45 14.5 14.75 14.5Z" fill="white"/>
</g>
<defs>
<clipPath id="clip0_6589_2604">
<rect width="24" height="24" fill="white"/>
</clipPath>
</defs>
</svg>
