<svg width="50" height="50" viewBox="0 0 50 50" fill="none" xmlns="http://www.w3.org/2000/svg">
<circle cx="25" cy="25" r="24" stroke="white" stroke-opacity="0.5" stroke-width="2"/>
<path d="M29.0104 27.2917H28.0995L27.7844 26.9766C28.9073 25.676 29.5833 23.9859 29.5833 22.1354C29.5833 18.0219 26.249 14.6875 22.1354 14.6875C18.0219 14.6875 14.6875 18.0219 14.6875 22.1354C14.6875 26.249 18.0219 29.5833 22.1354 29.5833C23.9859 29.5833 25.676 28.9073 26.9766 27.7901L27.2917 28.1052V29.0104L33.0208 34.7281L34.7281 33.0208L29.0104 27.2917ZM22.1354 27.2917C19.288 27.2917 16.9792 24.9828 16.9792 22.1354C16.9792 19.288 19.288 16.9792 22.1354 16.9792C24.9828 16.9792 27.2917 19.288 27.2917 22.1354C27.2917 24.9828 24.9828 27.2917 22.1354 27.2917Z" fill="#FAFAFA"/>
</svg>
