<svg width="24" height="24" viewBox="0 0 24 24" fill="none" xmlns="http://www.w3.org/2000/svg">
<path d="M6.8 4.38938C6.8 4.98673 6.6 5.58407 6 6.18142C5.4 6.77876 5 6.77876 4.4 6.77876C3.8 6.77876 3.2 6.57965 2.8 6.18142C2.4 5.78319 2 4.98673 2 4.38938C2 3.79204 2.2 3.19469 2.8 2.59735C3.4 2 3.8 2 4.4 2C5 2 5.6 2.19912 6.2 2.79646C6.8 3.39381 6.8 3.79204 6.8 4.38938ZM6.8 8.76991V21.3142C6.8 21.5133 6.8 21.5133 6.6 21.7124C6.4 21.9115 6.4 21.9115 6.2 21.9115H2.6C2.4 21.9115 2.4 21.9115 2.2 21.7124C2 21.5133 2.2 21.5133 2.2 21.3142V8.76991C2.2 8.5708 2.2 8.5708 2.4 8.37168C2.6 8.17257 2.6 8.17257 2.8 8.17257H6.4C6.6 8.17257 6.6 8.17257 6.8 8.37168C7 8.5708 6.8 8.5708 6.8 8.76991ZM17 12.1549C16.8 11.9558 16.2 11.7566 15.6 11.7566C14.8 11.7566 14.2 11.9558 13.8 12.354C13.4 12.7522 13.2 13.7478 13.2 14.5442V21.3142C13.2 21.5133 13.2 21.5133 13 21.7124C12.8 21.9115 12.8 21.9115 12.8 21.9115H9.2C9 21.9115 9 21.9115 8.8 21.7124C8.6 21.5133 8.6 21.5133 8.6 21.3142V8.76991C8.6 8.5708 8.6 8.5708 8.8 8.37168C9 8.17257 9 8.17257 9.2 8.17257H12.6C12.8 8.17257 12.8 8.17257 13 8.17257C13.2 8.17257 13.2 8.37168 13.2 8.37168C13.2 8.5708 13.2 8.5708 13.2 8.5708C13.2 8.5708 13.2 8.76991 13.2 8.96903C14 8.37168 15.2 7.97345 16.8 7.97345C18.4 7.97345 19.8 8.37168 20.6 9.16814C21.4 9.9646 22 11.1593 22 12.9513V21.5133C22 21.7124 22 21.7124 21.8 21.9115C21.6 22.1106 21.6 21.9115 21.6 21.9115H17.8C17.6 21.9115 17.6 21.9115 17.4 21.7124C17.2 21.5133 17.4 21.5133 17.4 21.3142V13.7478C17.4 12.9513 17.2 12.5531 17 12.1549Z" fill="#007BB5"/>
</svg>
