<svg width="24" height="24" viewBox="0 0 24 24" fill="none" xmlns="http://www.w3.org/2000/svg">
<path d="M20 7.44444C20 7.66667 20 7.88889 20 8.11111C20 9.66667 19.6 11.2222 19.2 12.5556C18.8 13.8889 18 15.4444 17 16.7778C16 18.1111 14.8 19 13.2 19.8889C11.6 20.7778 10 21 8.2 21C6 21 4 20.3333 2 19C2.4 19 2.6 19 3 19C5 19 6.6 18.3333 8.2 17C7.2 17 6.4 16.5556 5.8 16.1111C5.2 15.6667 4.6 14.7778 4.4 13.8889C4.6 13.8889 4.8 13.8889 5.2 13.8889C5.6 13.8889 6 13.8889 6.2 13.6667C5.2 13.6667 4.4 13 3.8 12.3333C3.2 11.6667 2.8 10.5556 2.8 9.44444C3.4 9.66667 4 9.88889 4.6 9.88889C3.4 9 2.8 7.66667 2.8 6.11111C2.8 5.22222 3 4.55556 3.4 3.88889C4.4 5.22222 5.6 6.33333 7.2 7.22222C8.8 8.11111 10.2 8.55556 12 8.55556C12 8.11111 12 7.88889 12 7.44444C12 6.11111 12.4 5.22222 13.2 4.33333C14 3.44444 14.8 3 15.8 3C17 3 18 3.44444 18.8 4.33333C19.8 4.11111 20.6 3.66667 21.4 3.22222C21.2 4.33333 20.6 5.22222 19.6 5.88889C20.4 5.66667 21.2 5.44444 22 5.22222C21.4 6.11111 20.8 6.77778 20 7.44444Z" fill="#1DA1F2"/>
</svg>
