<svg width="16" height="16" viewBox="0 0 16 16" fill="none" xmlns="http://www.w3.org/2000/svg">
<path d="M8 4C5.27273 4 2.94364 5.65867 2 8C2.94364 10.3413 5.27273 12 8 12C10.73 12 13.0564 10.3413 14 8C13.0564 5.65867 10.73 4 8 4ZM8 10.6667C6.49455 10.6667 5.27273 9.472 5.27273 8C5.27273 6.528 6.49455 5.33333 8 5.33333C9.50545 5.33333 10.7273 6.528 10.7273 8C10.7273 9.472 9.50545 10.6667 8 10.6667ZM8 6.4C7.09727 6.4 6.36364 7.11733 6.36364 8C6.36364 8.88267 7.09727 9.6 8 9.6C8.90273 9.6 9.63636 8.88267 9.63636 8C9.63636 7.11733 8.90273 6.4 8 6.4Z" fill="white"/>
</svg>
